{"title":"Rosewater.2014.BRRip.480p.x264.AAC-VYTO [P2PDL]","uid":11680599,"size":377863248,"categoryP":"video","categoryS":"movies","magnet":"?xt=urn:btih:f744e7dbb5c6b56238335f647a77cf1ee706a9c3&amp;dn=Rosewater.2014.BRRip.480p.x264.AAC-VYTO+%5BP2PDL%5D&amp;tr=udp%3A%2F%2Ftracker.openbittorrent.com%3A80&amp;tr=udp%3A%2F%2Fopen.demonii.com%3A1337&amp;tr=udp%3A%2F%2Ftracker.coppersurfer.tk%3A6969&amp;tr=udp%3A%2F%2Fexodus.desync.com%3A6969","seeders":1,"leechers":4,"uploader":"ValidusVyto","files":6,"time":1423068563,"description":"Rosewater.2014.BRRip.480p.x264.AAC-VYTO\n\n\nGenre:  Biography | Drama\nIMDb: http://www.imdb.com/title/tt2752688/\n\nGeneral\nFormat                      : MPEG-4\nFile size                   : 351 MiB\nDuration                    : 1h 43mn\nOverall bit rate mode       : Variable\nOverall bit rate            : 474 Kbps\n\nVideo\nFormat                      : AVC\nBit rate                    : 439 Kbps\nWidth                       : 720 pixels\nHeight                      : 392 pixels\nDisplay aspect ratio        : 1.85:1\nFrame rate mode             : Constant\nFrame rate                  : 23.976 fps\nBit depth                   : 8 bits\nStream size                 : 325 MiB (93%)\nWriting library             : x264 core 142 r2491 24e4fed\n\nAudio\nFormat                      : AAC\nBit rate mode               : Variable\nBit rate                    : 31.9 Kbps\nChannel(s)                  : 2 channels\nChannel positions           : Front: L R\nSampling rate               : 48.0 KHz\nStream size                 : 23.6 MiB (7%)\nLanguage                    : English\n\nSubtitle                    : Yes(English)\nSource                      : 720p.BluRay.x264-GECKOS\n &lt;a href=&quot;\nhttp://someimage.com/m2RgoqH&quot; rel=&quot;nofollow&quot; target=&quot;_NEW&quot;&gt;\nhttp://someimage.com/m2RgoqH&lt;/a&gt; &lt;a href=&quot;\nhttp://someimage.com/x23fu5E&quot; rel=&quot;nofollow&quot; target=&quot;_NEW&quot;&gt;\nhttp://someimage.com/x23fu5E&lt;/a&gt; &lt;a href=&quot;\nhttp://someimage.com/VN3mkbL&quot; rel=&quot;nofollow&quot; target=&quot;_NEW&quot;&gt;\nhttp://someimage.com/VN3mkbL&lt;/a&gt; &lt;a href=&quot;\nhttp://someimage.com/I4PrBJl&quot; rel=&quot;nofollow&quot; target=&quot;_NEW&quot;&gt;\nhttp://someimage.com/I4PrBJl&lt;/a&gt; &lt;a href=&quot;\nhttp://someimage.com/NWSlvGF&quot; rel=&quot;nofollow&quot; target=&quot;_NEW&quot;&gt;\nhttp://someimage.com/NWSlvGF&lt;/a&gt; &lt;a href=&quot;\nhttp://someimage.com/UzP5gHl&quot; rel=&quot;nofollow&quot; target=&quot;_NEW&quot;&gt;\nhttp://someimage.com/UzP5gHl&lt;/a&gt; &lt;a href=&quot;\nhttp://someimage.com/nJJp0fs&quot; rel=&quot;nofollow&quot; target=&quot;_NEW&quot;&gt;\nhttp://someimage.com/nJJp0fs&lt;/a&gt; &lt;a href=&quot;\nhttp://someimage.com/KPsYyGt&quot; rel=&quot;nofollow&quot; target=&quot;_NEW&quot;&gt;\nhttp://someimage.com/KPsYyGt&lt;/a&gt; &lt;a href=&quot;\nhttp://someimage.com/KBjKYf6&quot; rel=&quot;nofollow&quot; target=&quot;_NEW&quot;&gt;\nhttp://someimage.com/KBjKYf6&lt;/a&gt; &lt;a href=&quot;\nhttp://someimage.com/IG2PQi7&quot; rel=&quot;nofollow&quot; target=&quot;_NEW&quot;&gt;\nhttp://someimage.com/IG2PQi7&lt;/a&gt; &lt;a href=&quot;\nhttp://someimage.com/nh8gDkc&quot; rel=&quot;nofollow&quot; target=&quot;_NEW&quot;&gt;\nhttp://someimage.com/nh8gDkc&lt;/a&gt; &lt;a href=&quot;\nhttp://someimage.com/nv5tXHO&quot; rel=&quot;nofollow&quot; target=&quot;_NEW&quot;&gt;\nhttp://someimage.com/nv5tXHO&lt;/a&gt;\n\n\n----------------------------------------------------------------------------------------------------\n\n\nEncoder Notes: Looking For Early Access To Anything You Can Provide DVDScr, R5, DVDR, BluRay, Direct\nAudio, Music Releases and Seedboxes. If You Got anything to offer please contact us.\n\nWe require dedicated servers, so as to do more and fast releases of movies.\nSupport us by donating LC - LezHMTo2cYaiztCCcWxB4cNFVNVpWW3GSx","torrent":{"xt":"urn:btih:f744e7dbb5c6b56238335f647a77cf1ee706a9c3","amp;dn":"Rosewater.2014.BRRip.480p.x264.AAC-VYTO+%5BP2PDL%5D","amp;tr":["udp%3A%2F%2Ftracker.openbittorrent.com%3A80","udp%3A%2F%2Fopen.demonii.com%3A1337","udp%3A%2F%2Ftracker.coppersurfer.tk%3A6969","udp%3A%2F%2Fexodus.desync.com%3A6969"],"infoHash":"f744e7dbb5c6b56238335f647a77cf1ee706a9c3","infoHashBuffer":{"type":"Buffer","data":[247,68,231,219,181,198,181,98,56,51,95,100,122,119,207,30,231,6,169,195]},"announce":[],"urlList":[]}}